<svg width="22" height="16" viewBox="0 0 22 16" fill="none" xmlns="http://www.w3.org/2000/svg">
<path d="M15.9153 12.5213C14.5008 13.5799 12.7784 14.1665 11 14.195C5.2076 14.195 1.89764 7.69502 1.89764 7.69502C2.92695 5.81156 4.35457 4.16602 6.08473 2.86878M9.26229 1.39003C9.83187 1.25912 10.415 1.19368 11 1.19503C16.7924 1.19503 20.1024 7.69502 20.1024 7.69502C19.6001 8.6177 19.001 9.48636 18.315 10.2869M12.7543 9.41751C12.527 9.657 12.253 9.84908 11.9484 9.9823C11.6439 10.1155 11.3152 10.1872 10.9819 10.1929C10.6486 10.1987 10.3175 10.1385 10.0084 10.0159C9.69925 9.89332 9.41845 9.71085 9.18272 9.47939C8.94699 9.24793 8.76116 8.97222 8.6363 8.66871C8.51145 8.3652 8.45013 8.0401 8.45601 7.71282C8.46189 7.38554 8.53485 7.06277 8.67053 6.76377C8.80621 6.46477 9.00184 6.19567 9.24574 5.97252" stroke="#363636" stroke-width="2" stroke-linecap="round" stroke-linejoin="round"/>
<path d="M6 1L18 13" stroke="#363636" stroke-width="2" stroke-linecap="round" stroke-linejoin="round"/>
</svg>



